<svg width="27" height="26" viewBox="0 0 27 26" fill="none" xmlns="http://www.w3.org/2000/svg">
<rect x="0.0136719" width="26" height="26" rx="13" fill="#249CD9"/>
<path fill-rule="evenodd" clip-rule="evenodd" d="M10.0787 7.4403C10.1194 7.39956 10.1676 7.36723 10.2208 7.34518C10.2739 7.32312 10.3309 7.31177 10.3885 7.31177C10.446 7.31177 10.503 7.32312 10.5562 7.34518C10.6093 7.36723 10.6576 7.39956 10.6982 7.4403L15.9482 12.6903C15.989 12.7309 16.0213 12.7792 16.0434 12.8324C16.0654 12.8855 16.0768 12.9425 16.0768 13C16.0768 13.0576 16.0654 13.1146 16.0434 13.1677C16.0213 13.2209 15.989 13.2692 15.9482 13.3098L10.6982 18.5598C10.6161 18.642 10.5047 18.6881 10.3885 18.6881C10.2723 18.6881 10.1609 18.642 10.0787 18.5598C9.99658 18.4776 9.95042 18.3662 9.95042 18.25C9.95042 18.1339 9.99658 18.0225 10.0787 17.9403L15.0199 13L10.0787 8.0598C10.038 8.01916 10.0057 7.97088 9.9836 7.91773C9.96155 7.86458 9.9502 7.8076 9.9502 7.75005C9.9502 7.6925 9.96155 7.63552 9.9836 7.58237C10.0057 7.52922 10.038 7.48094 10.0787 7.4403Z" fill="white"/>
</svg>
