<svg width="16" height="16" viewBox="0 0 16 16" fill="none" xmlns="http://www.w3.org/2000/svg">
<path d="M3.04962 3.04999C3.23715 2.86252 3.49146 2.7572 3.75662 2.7572C4.02179 2.7572 4.27609 2.86252 4.46362 3.04999L7.99962 6.58599L11.5356 3.04999C11.7242 2.86783 11.9768 2.76704 12.239 2.76931C12.5012 2.77159 12.752 2.87676 12.9374 3.06217C13.1228 3.24758 13.228 3.49839 13.2303 3.76059C13.2326 4.02278 13.1318 4.27539 12.9496 4.46399L9.41362 7.99999L12.9496 11.536C13.1318 11.7246 13.2326 11.9772 13.2303 12.2394C13.228 12.5016 13.1228 12.7524 12.9374 12.9378C12.752 13.1232 12.5012 13.2284 12.239 13.2307C11.9768 13.2329 11.7242 13.1321 11.5356 12.95L7.99962 9.41399L4.46362 12.95C4.27502 13.1321 4.02242 13.2329 3.76022 13.2307C3.49802 13.2284 3.24721 13.1232 3.0618 12.9378C2.8764 12.7524 2.77123 12.5016 2.76895 12.2394C2.76667 11.9772 2.86746 11.7246 3.04962 11.536L6.58562 7.99999L3.04962 4.46399C2.86215 4.27646 2.75684 4.02215 2.75684 3.75699C2.75684 3.49182 2.86215 3.23752 3.04962 3.04999Z" fill="#2D2D2D"/>
</svg>
