<svg width="16" height="16" viewBox="0 0 16 16" fill="none" xmlns="http://www.w3.org/2000/svg">
<path d="M7.33301 13.3333H1.99968C1.81079 13.3333 1.65257 13.2693 1.52501 13.1413C1.39745 13.0133 1.33345 12.8551 1.33301 12.6667C1.33257 12.4782 1.39657 12.32 1.52501 12.192C1.65345 12.064 1.81168 12 1.99968 12H7.33301C7.5219 12 7.68034 12.064 7.80834 12.192C7.93634 12.32 8.00012 12.4782 7.99968 12.6667C7.99923 12.8551 7.93523 13.0136 7.80768 13.142C7.68012 13.2704 7.5219 13.3342 7.33301 13.3333ZM3.33301 11.3333C2.96634 11.3333 2.65257 11.2029 2.39168 10.942C2.13079 10.6811 2.00012 10.3671 1.99968 10V4.00001C1.99968 3.63334 2.13034 3.31956 2.39168 3.05867C2.65301 2.79778 2.96679 2.66712 3.33301 2.66667H13.333C13.5219 2.66667 13.6803 2.73067 13.8083 2.85867C13.9363 2.98667 14.0001 3.14489 13.9997 3.33334C13.9992 3.52178 13.9352 3.68023 13.8077 3.80867C13.6801 3.93712 13.5219 4.00089 13.333 4.00001H3.33301V10H7.33301C7.5219 10 7.68034 10.064 7.80834 10.192C7.93634 10.32 8.00012 10.4782 7.99968 10.6667C7.99923 10.8551 7.93523 11.0136 7.80768 11.142C7.68012 11.2704 7.5219 11.3342 7.33301 11.3333H3.33301ZM13.333 12V6.66667H10.6663V12H13.333ZM10.333 13.3333C10.0552 13.3333 9.81923 13.2362 9.62501 13.042C9.43079 12.8478 9.33345 12.6116 9.33301 12.3333V6.33334C9.33301 6.05556 9.43034 5.81956 9.62501 5.62534C9.81968 5.43112 10.0557 5.33378 10.333 5.33334H13.6663C13.9441 5.33334 14.1803 5.43067 14.375 5.62534C14.5697 5.82 14.6668 6.05601 14.6663 6.33334V12.3333C14.6663 12.6111 14.5692 12.8473 14.375 13.042C14.1808 13.2367 13.9446 13.3338 13.6663 13.3333H10.333ZM11.9997 8.33334C12.1441 8.33334 12.2637 8.28334 12.3583 8.18334C12.453 8.08334 12.5001 7.96667 12.4997 7.83334C12.4997 7.68889 12.4523 7.56956 12.3577 7.47534C12.263 7.38112 12.1437 7.33378 11.9997 7.33334C11.8663 7.33334 11.7497 7.38067 11.6497 7.47534C11.5497 7.57001 11.4997 7.68934 11.4997 7.83334C11.4997 7.96667 11.5497 8.08334 11.6497 8.18334C11.7497 8.28334 11.8663 8.33334 11.9997 8.33334Z" fill="#F78012"/>
</svg>
