<svg width="16" height="16" viewBox="0 0 16 16" fill="none" xmlns="http://www.w3.org/2000/svg">
<path fill-rule="evenodd" clip-rule="evenodd" d="M7.49 2.02173C8.52553 1.93336 9.56626 2.11549 10.5102 2.5503C11.4542 2.98512 12.2691 3.65769 12.875 4.50214V3.31256C12.875 3.16337 12.9343 3.02029 13.0398 2.91479C13.1452 2.8093 13.2883 2.75003 13.4375 2.75003C13.5867 2.75003 13.7298 2.8093 13.8352 2.91479C13.9407 3.02029 14 3.16337 14 3.31256V6.50026H10.8125C10.6633 6.50026 10.5202 6.44099 10.4148 6.3355C10.3093 6.23 10.25 6.08692 10.25 5.93773C10.25 5.78853 10.3093 5.64545 10.4148 5.53995C10.5202 5.43446 10.6633 5.37519 10.8125 5.37519H12.1077C11.5948 4.57257 10.8581 3.93779 9.98842 3.54927C9.11878 3.16075 8.15438 3.0355 7.21436 3.189C6.27434 3.34251 5.39987 3.76803 4.69898 4.41301C3.99809 5.058 3.50148 5.89418 3.2705 6.81828C3.25346 6.89087 3.22216 6.95935 3.17843 7.01974C3.13469 7.08012 3.07938 7.13121 3.01572 7.17003C2.95206 7.20885 2.88132 7.23462 2.80761 7.24585C2.7339 7.25708 2.6587 7.25355 2.58637 7.23545C2.51404 7.21736 2.44603 7.18506 2.38629 7.14044C2.32655 7.09582 2.27628 7.03977 2.2384 6.97555C2.20052 6.91133 2.17578 6.84022 2.16562 6.76635C2.15547 6.69248 2.1601 6.61733 2.17925 6.54526C2.48266 5.33201 3.15755 4.24388 4.10959 3.43298C5.06164 2.62208 6.24324 2.12894 7.48925 2.02248L7.49 2.02173ZM4.94 13.1614C5.74399 13.638 6.64819 13.9201 7.58051 13.9854C8.51284 14.0506 9.44751 13.8971 10.31 13.5372C11.1725 13.1772 11.939 12.6207 12.5484 11.9121C13.1578 11.2034 13.5932 10.3622 13.82 9.45544C13.8538 9.31158 13.8296 9.16021 13.7526 9.03404C13.6757 8.90788 13.5522 8.81704 13.4089 8.78118C13.2656 8.74532 13.1139 8.7673 12.9866 8.84238C12.8593 8.91746 12.7667 9.03961 12.7288 9.18243C12.4976 10.1063 12.001 10.9423 11.3002 11.5871C10.5994 12.2319 9.72503 12.6574 8.78516 12.8109C7.8453 12.9643 6.88107 12.8392 6.01153 12.4508C5.142 12.0625 4.40524 11.4279 3.89225 10.6255H5.1875C5.33668 10.6255 5.47976 10.5662 5.58525 10.4608C5.69074 10.3553 5.75 10.2122 5.75 10.063C5.75 9.91379 5.69074 9.77071 5.58525 9.66521C5.47976 9.55971 5.33668 9.50045 5.1875 9.50045H2V12.6881C2 12.8373 2.05926 12.9804 2.16475 13.0859C2.27024 13.1914 2.41332 13.2507 2.5625 13.2507C2.71168 13.2507 2.85476 13.1914 2.96025 13.0859C3.06574 12.9804 3.125 12.8373 3.125 12.6881V11.4986C3.60859 12.1723 4.22659 12.7385 4.94 13.1614Z" fill="#F78012"/>
</svg>
