<svg width="27" height="26" viewBox="0 0 27 26" fill="none" xmlns="http://www.w3.org/2000/svg">
<g opacity="0.3">
<rect width="26" height="26" rx="13" transform="matrix(-1 0 0 1 26.0137 0)" fill="#249CD9"/>
<path fill-rule="evenodd" clip-rule="evenodd" d="M15.9486 7.4403C15.908 7.39956 15.8597 7.36723 15.8065 7.34518C15.7534 7.32312 15.6964 7.31177 15.6389 7.31177C15.5813 7.31177 15.5243 7.32312 15.4712 7.34518C15.418 7.36723 15.3698 7.39956 15.3291 7.4403L10.0791 12.6903C10.0384 12.7309 10.006 12.7792 9.98399 12.8324C9.96194 12.8855 9.95058 12.9425 9.95058 13C9.95058 13.0576 9.96194 13.1146 9.98399 13.1677C10.006 13.2209 10.0384 13.2692 10.0791 13.3098L15.3291 18.5598C15.4113 18.642 15.5227 18.6881 15.6389 18.6881C15.755 18.6881 15.8665 18.642 15.9486 18.5598C16.0308 18.4776 16.0769 18.3662 16.0769 18.25C16.0769 18.1339 16.0308 18.0225 15.9486 17.9403L11.0075 13L15.9486 8.0598C15.9894 8.01916 16.0217 7.97088 16.0437 7.91773C16.0658 7.86458 16.0771 7.8076 16.0771 7.75005C16.0771 7.6925 16.0658 7.63552 16.0437 7.58237C16.0217 7.52922 15.9894 7.48094 15.9486 7.4403Z" fill="white"/>
</g>
</svg>
