<svg width="26" height="26" viewBox="0 0 26 26" fill="none" xmlns="http://www.w3.org/2000/svg">
<path d="M12.9998 2.21069C7.0415 2.21069 2.1665 7.07486 2.1665 13.0657C2.1665 18.4824 6.1315 22.9782 11.3098 23.7907V16.2074H8.55817V13.0657H11.3098V10.6715C11.3098 7.95236 12.924 6.45736 15.4048 6.45736C16.5857 6.45736 17.8207 6.66319 17.8207 6.66319V9.33903H16.4557C15.1123 9.33903 14.6898 10.1732 14.6898 11.029V13.0657H17.7015L17.214 16.2074H14.6898V23.7907C17.2427 23.3875 19.5672 22.085 21.2439 20.1183C22.9206 18.1515 23.839 15.6501 23.8332 13.0657C23.8332 7.07486 18.9582 2.21069 12.9998 2.21069Z" fill="white"/>
</svg>
