<svg width="26" height="26" viewBox="0 0 26 26" fill="none" xmlns="http://www.w3.org/2000/svg">
<path d="M14.1141 2.16808C14.9047 2.16505 15.6952 2.17299 16.4855 2.19191L16.6957 2.1995C16.9384 2.20816 17.1778 2.219 17.467 2.232C18.6197 2.28616 19.4062 2.46816 20.0963 2.73575C20.8113 3.01091 21.4136 3.38358 22.016 3.98591C22.5667 4.52715 22.9929 5.18186 23.265 5.9045C23.5326 6.59458 23.7146 7.38216 23.7688 8.53483C23.7818 8.823 23.7926 9.0635 23.8013 9.30616L23.8078 9.51633C23.827 10.3063 23.8354 11.0965 23.8327 11.8867L23.8338 12.6948V14.114C23.8365 14.9045 23.8282 15.6951 23.8089 16.4854L23.8024 16.6956C23.7937 16.9382 23.7829 17.1777 23.7699 17.4669C23.7157 18.6196 23.5315 19.4061 23.265 20.0962C22.9938 20.8196 22.5675 21.4748 22.016 22.0158C21.4743 22.5665 20.8192 22.9927 20.0963 23.2649C19.4062 23.5325 18.6197 23.7145 17.467 23.7687C17.1778 23.7817 16.9384 23.7925 16.6957 23.8012L16.4855 23.8077C15.6952 23.8269 14.9047 23.8352 14.1141 23.8326L13.306 23.8337H11.8879C11.0973 23.8363 10.3068 23.828 9.51646 23.8087L9.3063 23.8022C9.04912 23.7929 8.79201 23.7821 8.53496 23.7697C7.3823 23.7156 6.5958 23.5314 5.90463 23.2649C5.1817 22.9934 4.52689 22.5671 3.98605 22.0158C3.43468 21.4745 3.00804 20.8194 2.73588 20.0962C2.4683 19.4061 2.2863 18.6196 2.23213 17.4669C2.22006 17.2099 2.20923 16.9527 2.19963 16.6956L2.19421 16.4854C2.17424 15.6951 2.16521 14.9046 2.16713 14.114V11.8867C2.16411 11.0965 2.17205 10.3063 2.19096 9.51633L2.19855 9.30616C2.20721 9.0635 2.21805 8.823 2.23105 8.53483C2.28521 7.38108 2.46721 6.59566 2.7348 5.9045C3.00712 5.1815 3.43459 4.52698 3.98713 3.987C4.5276 3.43531 5.182 3.00828 5.90463 2.73575C6.5958 2.46816 7.38121 2.28616 8.53496 2.232L9.3063 2.1995L9.51646 2.19408C10.3064 2.17412 11.0966 2.16509 11.8868 2.167L14.1141 2.16808ZM13.0005 7.58475C12.2828 7.5746 11.5702 7.70719 10.9042 7.97482C10.2382 8.24245 9.632 8.63978 9.12088 9.14372C8.60976 9.64766 8.2039 10.2482 7.92687 10.9103C7.64985 11.5725 7.50719 12.2831 7.50719 13.0009C7.50719 13.7186 7.64985 14.4293 7.92687 15.0914C8.2039 15.7536 8.60976 16.3541 9.12088 16.858C9.632 17.362 10.2382 17.7593 10.9042 18.0269C11.5702 18.2946 12.2828 18.4271 13.0005 18.417C14.4371 18.417 15.8148 17.8463 16.8306 16.8305C17.8464 15.8147 18.4171 14.4369 18.4171 13.0003C18.4171 11.5637 17.8464 10.186 16.8306 9.17017C15.8148 8.15435 14.4371 7.58475 13.0005 7.58475ZM13.0005 9.75141C13.4322 9.74346 13.8612 9.82161 14.2623 9.98131C14.6635 10.141 15.0288 10.379 15.337 10.6815C15.6451 10.984 15.8899 11.3448 16.057 11.743C16.2242 12.1411 16.3103 12.5685 16.3103 13.0003C16.3104 13.4321 16.2244 13.8596 16.0574 14.2578C15.8905 14.656 15.6458 15.0169 15.3377 15.3195C15.0297 15.622 14.6645 15.8602 14.2633 16.02C13.8622 16.1798 13.4333 16.2581 13.0015 16.2503C12.1396 16.2503 11.3129 15.9079 10.7034 15.2984C10.094 14.6889 9.75155 13.8623 9.75155 13.0003C9.75155 12.1384 10.094 11.3117 10.7034 10.7022C11.3129 10.0927 12.1396 9.75033 13.0015 9.75033L13.0005 9.75141ZM18.688 5.95975C18.3385 5.97374 18.0079 6.12241 17.7656 6.37463C17.5233 6.62686 17.388 6.96306 17.388 7.31283C17.388 7.6626 17.5233 7.99881 17.7656 8.25103C18.0079 8.50325 18.3385 8.65193 18.688 8.66591C19.0471 8.66591 19.3916 8.52324 19.6455 8.26929C19.8995 8.01533 20.0421 7.6709 20.0421 7.31175C20.0421 6.9526 19.8995 6.60816 19.6455 6.35421C19.3916 6.10025 19.0471 5.95758 18.688 5.95758V5.95975Z" fill="white"/>
</svg>
