<svg width="26" height="26" viewBox="0 0 26 26" fill="none" xmlns="http://www.w3.org/2000/svg">
<path d="M24.3323 6.49992C23.4981 6.87909 22.5989 7.12825 21.6673 7.24742C22.6206 6.67325 23.3573 5.76325 23.7039 4.66909C22.8048 5.21075 21.8081 5.58992 20.7573 5.80659C19.9014 4.87492 18.6989 4.33325 17.3339 4.33325C14.7881 4.33325 12.7081 6.41325 12.7081 8.98075C12.7081 9.34908 12.7514 9.70659 12.8273 10.0424C8.97061 9.84742 5.53645 7.99492 3.25061 5.18909C2.84978 5.87159 2.62228 6.67325 2.62228 7.51825C2.62228 9.13242 3.43478 10.5624 4.69145 11.3749C3.92228 11.3749 3.20728 11.1583 2.57895 10.8333V10.8658C2.57895 13.1191 4.18228 15.0041 6.30561 15.4266C5.6239 15.6131 4.90822 15.6391 4.21478 15.5024C4.50902 16.4259 5.08528 17.234 5.86255 17.8131C6.63982 18.3922 7.57901 18.7131 8.54811 18.7308C6.90538 20.0312 4.86911 20.7342 2.77395 20.7241C2.40561 20.7241 2.03728 20.7024 1.66895 20.6591C3.72728 21.9808 6.17561 22.7499 8.79728 22.7499C17.3339 22.7499 22.0248 15.6649 22.0248 9.52242C22.0248 9.31659 22.0248 9.12158 22.0139 8.91575C22.9239 8.26575 23.7039 7.44242 24.3323 6.49992Z" fill="white"/>
</svg>
