<svg width="16" height="16" viewBox="0 0 16 16" fill="none" xmlns="http://www.w3.org/2000/svg">
<path d="M7.99967 13.3333C9.41416 13.3333 10.7707 12.7714 11.7709 11.7712C12.7711 10.771 13.333 9.41448 13.333 7.99999C13.333 6.58551 12.7711 5.22895 11.7709 4.22876C10.7707 3.22856 9.41416 2.66666 7.99967 2.66666C6.58519 2.66666 5.22863 3.22856 4.22844 4.22876C3.22824 5.22895 2.66634 6.58551 2.66634 7.99999C2.66634 9.41448 3.22824 10.771 4.22844 11.7712C5.22863 12.7714 6.58519 13.3333 7.99967 13.3333ZM7.99967 1.33333C8.87515 1.33333 9.74206 1.50577 10.5509 1.8408C11.3597 2.17583 12.0947 2.66689 12.7137 3.28595C13.3328 3.90501 13.8238 4.63993 14.1589 5.44877C14.4939 6.25761 14.6663 7.12452 14.6663 7.99999C14.6663 9.7681 13.964 11.4638 12.7137 12.714C11.4635 13.9643 9.76778 14.6667 7.99967 14.6667C4.31301 14.6667 1.33301 11.6667 1.33301 7.99999C1.33301 6.23188 2.03539 4.53619 3.28563 3.28595C4.53587 2.03571 6.23156 1.33333 7.99967 1.33333ZM8.33301 4.66666V8.16666L11.333 9.94666L10.833 10.7667L7.33301 8.66666V4.66666H8.33301Z" fill="#F78012"/>
</svg>
