<svg width="16" height="16" viewBox="0 0 16 16" fill="none" xmlns="http://www.w3.org/2000/svg">
<path d="M0.666992 13.3333V12.6667C0.666992 11.429 1.15866 10.242 2.03383 9.36684C2.909 8.49167 4.09598 8 5.33366 8C6.57134 8 7.75832 8.49167 8.63349 9.36684C9.50866 10.242 10.0003 11.429 10.0003 12.6667V13.3333" stroke="#F78012" stroke-width="1.2" stroke-linecap="round"/>
<path d="M8.66699 9.33333C8.66699 8.44928 9.01818 7.60143 9.6433 6.97631C10.2684 6.35119 11.1163 6 12.0003 6C12.4381 6 12.8715 6.08622 13.2759 6.25373C13.6804 6.42125 14.0478 6.66678 14.3573 6.97631C14.6669 7.28584 14.9124 7.6533 15.0799 8.05772C15.2474 8.46214 15.3337 8.89559 15.3337 9.33333V9.66667" stroke="#F78012" stroke-width="1.2" stroke-linecap="round"/>
<path d="M5.33366 8C6.0409 8 6.71918 7.71905 7.21928 7.21895C7.71937 6.71885 8.00033 6.04058 8.00033 5.33333C8.00033 4.62609 7.71937 3.94781 7.21928 3.44772C6.71918 2.94762 6.0409 2.66667 5.33366 2.66667C4.62641 2.66667 3.94814 2.94762 3.44804 3.44772C2.94794 3.94781 2.66699 4.62609 2.66699 5.33333C2.66699 6.04058 2.94794 6.71885 3.44804 7.21895C3.94814 7.71905 4.62641 8 5.33366 8ZM12.0003 6C12.5308 6 13.0395 5.78929 13.4145 5.41421C13.7896 5.03914 14.0003 4.53043 14.0003 4C14.0003 3.46957 13.7896 2.96086 13.4145 2.58579C13.0395 2.21071 12.5308 2 12.0003 2C11.4699 2 10.9612 2.21071 10.5861 2.58579C10.211 2.96086 10.0003 3.46957 10.0003 4C10.0003 4.53043 10.211 5.03914 10.5861 5.41421C10.9612 5.78929 11.4699 6 12.0003 6Z" stroke="#F78012" stroke-width="1.2" stroke-linecap="round" stroke-linejoin="round"/>
</svg>
