<svg width="21" height="20" viewBox="0 0 21 20" fill="none" xmlns="http://www.w3.org/2000/svg">
<g clip-path="url(#clip0_47_445)">
<path d="M17.4699 10.5892C17.6261 10.4329 17.7139 10.221 17.7139 10C17.7139 9.77903 17.6261 9.56711 17.4699 9.41083L12.7557 4.69667C12.6788 4.61708 12.5869 4.55359 12.4852 4.50992C12.3835 4.46624 12.2742 4.44325 12.1635 4.44229C12.0529 4.44133 11.9432 4.46242 11.8408 4.50432C11.7383 4.54622 11.6453 4.60809 11.567 4.68634C11.4888 4.76458 11.4269 4.85763 11.385 4.96004C11.3431 5.06245 11.322 5.17219 11.323 5.28284C11.324 5.39348 11.347 5.50283 11.3906 5.6045C11.4343 5.70617 11.4978 5.79813 11.5774 5.875L14.869 9.16667H3.83321C3.6122 9.16667 3.40024 9.25447 3.24396 9.41075C3.08768 9.56703 2.99988 9.77899 2.99988 10C2.99988 10.221 3.08768 10.433 3.24396 10.5893C3.40024 10.7455 3.6122 10.8333 3.83321 10.8333H14.869L11.5774 14.125C11.4256 14.2822 11.3416 14.4927 11.3435 14.7112C11.3454 14.9297 11.433 15.1387 11.5875 15.2932C11.742 15.4477 11.951 15.5353 12.1695 15.5372C12.388 15.5391 12.5985 15.4551 12.7557 15.3033L17.4699 10.5892Z" fill="#249CD9"/>
</g>
<defs>
<clipPath id="clip0_47_445">
<rect width="20" height="20" fill="white" transform="matrix(0 1 -1 0 20.5 0)"/>
</clipPath>
</defs>
</svg>
