<svg width="18" height="19" viewBox="0 0 18 19" fill="none" xmlns="http://www.w3.org/2000/svg">
<g clip-path="url(#clip0_47_912)">
<path d="M3.75 12.5V8.75C3.75 8.5375 3.822 8.3595 3.966 8.216C4.11 8.0725 4.288 8.0005 4.5 8C4.712 7.9995 4.89025 8.0715 5.03475 8.216C5.17925 8.3605 5.251 8.5385 5.25 8.75V12.5C5.25 12.7125 5.178 12.8907 5.034 13.0347C4.89 13.1787 4.712 13.2505 4.5 13.25C4.288 13.2495 4.11 13.1775 3.966 13.034C3.822 12.8905 3.75 12.7125 3.75 12.5ZM8.25 12.5V8.75C8.25 8.5375 8.322 8.3595 8.466 8.216C8.61 8.0725 8.788 8.0005 9 8C9.212 7.9995 9.39025 8.0715 9.53475 8.216C9.67925 8.3605 9.751 8.5385 9.75 8.75V12.5C9.75 12.7125 9.678 12.8907 9.534 13.0347C9.39 13.1787 9.212 13.2505 9 13.25C8.788 13.2495 8.61 13.1775 8.466 13.034C8.322 12.8905 8.25 12.7125 8.25 12.5ZM15.75 6.5H2.175C1.9875 6.5 1.828 6.4345 1.6965 6.3035C1.565 6.1725 1.4995 6.013 1.5 5.825V5.4125C1.5 5.275 1.5345 5.15625 1.6035 5.05625C1.6725 4.95625 1.763 4.875 1.875 4.8125L8.325 1.5875C8.5375 1.4875 8.7625 1.4375 9 1.4375C9.2375 1.4375 9.4625 1.4875 9.675 1.5875L16.0875 4.79375C16.225 4.85625 16.3283 4.95 16.3973 5.075C16.4663 5.2 16.5005 5.33125 16.5 5.46875V5.75C16.5 5.9625 16.4283 6.14075 16.2848 6.28475C16.1413 6.42875 15.963 6.5005 15.75 6.5ZM2.25 16.25C2.0375 16.25 1.8595 16.178 1.716 16.034C1.5725 15.89 1.5005 15.712 1.5 15.5C1.4995 15.288 1.5715 15.11 1.716 14.966C1.8605 14.822 2.0385 14.75 2.25 14.75H9.7875C10 14.75 10.1783 14.822 10.3223 14.966C10.4663 15.11 10.538 15.288 10.5375 15.5C10.537 15.712 10.465 15.8902 10.3215 16.0347C10.178 16.1792 10 16.251 9.7875 16.25H2.25ZM13.5 10.0625C13.2875 10.0625 13.1095 9.9905 12.966 9.8465C12.8225 9.7025 12.7505 9.5245 12.75 9.3125V8.75C12.75 8.5375 12.822 8.3595 12.966 8.216C13.11 8.0725 13.288 8.0005 13.5 8C13.712 7.9995 13.8903 8.0715 14.0348 8.216C14.1793 8.3605 14.251 8.5385 14.25 8.75V9.3125C14.25 9.525 14.178 9.70325 14.034 9.84725C13.89 9.99125 13.712 10.063 13.5 10.0625ZM12 14.4125V12.9687C12 12.8312 12.0345 12.7 12.1035 12.575C12.1725 12.45 12.2755 12.3562 12.4125 12.2937L14.6625 11.1687C14.7625 11.1062 14.875 11.075 15 11.075C15.125 11.075 15.2375 11.1062 15.3375 11.1687L17.5875 12.2937C17.725 12.3562 17.8283 12.45 17.8973 12.575C17.9663 12.7 18.0005 12.8312 18 12.9687V14.4125C18 15.35 17.7563 16.1595 17.2688 16.841C16.7813 17.5225 16.1188 18.038 15.2813 18.3875C15.2563 18.4 15.1625 18.4187 15 18.4437C14.975 18.4437 14.8813 18.425 14.7188 18.3875C13.8813 18.0375 13.2188 17.522 12.7313 16.841C12.2438 16.16 12 15.3505 12 14.4125ZM14.4563 14.6562L14.1188 14.3187C14.0063 14.2062 13.875 14.153 13.725 14.159C13.575 14.165 13.4438 14.2245 13.3313 14.3375C13.2188 14.4505 13.1625 14.5817 13.1625 14.7312C13.1625 14.8807 13.2188 15.012 13.3313 15.125L13.9313 15.725C14.0813 15.875 14.2563 15.95 14.4563 15.95C14.6563 15.95 14.8313 15.875 14.9813 15.725L16.6688 14.0562C16.7813 13.9437 16.8375 13.8125 16.8375 13.6625C16.8375 13.5125 16.7813 13.3812 16.6688 13.2687C16.5563 13.1562 16.425 13.1032 16.275 13.1097C16.125 13.1162 15.9938 13.1692 15.8813 13.2687L14.4563 14.6562Z" fill="#E2730D"/>
</g>
<defs>
<clipPath id="clip0_47_912">
<rect width="18" height="18" fill="white" transform="translate(0 0.5)"/>
</clipPath>
</defs>
</svg>
