<svg width="18" height="19" viewBox="0 0 18 19" fill="none" xmlns="http://www.w3.org/2000/svg">
<path d="M4.83301 14.4999V12.4166M4.83301 12.4166V11.1666C4.83301 10.7741 4.83301 10.5774 4.96134 10.4549C5.08967 10.3333 5.29551 10.3333 5.70801 10.3333H6.29134C6.89551 10.3333 7.38551 10.7999 7.38551 11.3749C7.38551 11.9499 6.89551 12.4166 6.29134 12.4166H4.83301ZM16.4997 10.3333H15.4063C14.7188 10.3333 14.3747 10.3333 14.1613 10.5366C13.948 10.7399 13.948 11.0674 13.948 11.7224V12.4166M13.948 12.4166V14.4999M13.948 12.4166H15.7705M12.1247 12.4166C12.1247 13.5666 11.1455 14.4999 9.93717 14.4999C9.66467 14.4999 9.52884 14.4999 9.42634 14.4441C9.18384 14.3108 9.20801 14.0399 9.20801 13.8058V11.0274C9.20801 10.7933 9.18301 10.5224 9.42634 10.3891C9.52801 10.3333 9.66467 10.3333 9.93717 10.3333C11.1455 10.3333 12.1247 11.2666 12.1247 12.4166Z" stroke="#E2730D" stroke-width="1.5" stroke-linecap="round" stroke-linejoin="round"/>
<path d="M11.5 17.8333H7.93917C5.2225 17.8333 3.8625 17.8333 2.91917 17.1683C2.65071 16.98 2.41075 16.7541 2.20667 16.4975C1.5 15.6091 1.5 14.3308 1.5 11.7725V9.65163C1.5 7.18246 1.5 5.94746 1.89083 4.96163C2.51917 3.37579 3.8475 2.12579 5.5325 1.53413C6.57917 1.16663 7.89 1.16663 10.515 1.16663C12.0133 1.16663 12.7633 1.16663 13.3617 1.37663C14.3242 1.71496 15.0833 2.42913 15.4425 3.33496C15.6667 3.89829 15.6667 4.60413 15.6667 6.01496V7.83329" stroke="#E2730D" stroke-width="1.5" stroke-linecap="round" stroke-linejoin="round"/>
<path d="M1.5 9.49996C1.5 8.76332 1.79263 8.05685 2.31351 7.53597C2.83439 7.01509 3.54086 6.72246 4.2775 6.72246C4.8325 6.72246 5.48667 6.81913 6.02583 6.67496C6.26142 6.61156 6.47621 6.48733 6.64865 6.31475C6.82109 6.14216 6.94513 5.92727 7.00833 5.69163C7.1525 5.15246 7.05583 4.49829 7.05583 3.94329C7.05605 3.2068 7.34878 2.50054 7.86964 1.97984C8.3905 1.45914 9.09684 1.16663 9.83333 1.16663" stroke="#E2730D" stroke-width="1.5" stroke-linecap="round" stroke-linejoin="round"/>
</svg>
