<svg width="16" height="15" viewBox="0 0 16 15" fill="none" xmlns="http://www.w3.org/2000/svg">
<path fill-rule="evenodd" clip-rule="evenodd" d="M5 2.25C5 1.65326 5.23705 1.08097 5.65901 0.65901C6.08097 0.237053 6.65326 0 7.25 0H13.25C13.8467 0 14.419 0.237053 14.841 0.65901C15.2629 1.08097 15.5 1.65326 15.5 2.25V12.75C15.5 13.3467 15.2629 13.919 14.841 14.341C14.419 14.7629 13.8467 15 13.25 15H7.25C6.65326 15 6.08097 14.7629 5.65901 14.341C5.23705 13.919 5 13.3467 5 12.75V2.25ZM7.25 1.5C7.05109 1.5 6.86032 1.57902 6.71967 1.71967C6.57902 1.86032 6.5 2.05109 6.5 2.25V12.75C6.5 12.9489 6.57902 13.1397 6.71967 13.2803C6.86032 13.421 7.05109 13.5 7.25 13.5H13.25C13.4489 13.5 13.6397 13.421 13.7803 13.2803C13.921 13.1397 14 12.9489 14 12.75V2.25C14 2.05109 13.921 1.86032 13.7803 1.71967C13.6397 1.57902 13.4489 1.5 13.25 1.5H7.25Z" fill="#E2730D"/>
<path fill-rule="evenodd" clip-rule="evenodd" d="M0.5 6.75C0.5 6.15326 0.737053 5.58097 1.15901 5.15901C1.58097 4.73705 2.15326 4.5 2.75 4.5H6.125V6H2.75C2.55109 6 2.36032 6.07902 2.21967 6.21967C2.07902 6.36032 2 6.55109 2 6.75V12.75C2 12.9489 2.07902 13.1397 2.21967 13.2803C2.36032 13.421 2.55109 13.5 2.75 13.5H9.875V15H2.75C2.15326 15 1.58097 14.7629 1.15901 14.341C0.737053 13.919 0.5 13.3467 0.5 12.75V6.75Z" fill="#E2730D"/>
<path fill-rule="evenodd" clip-rule="evenodd" d="M8 11.25C8 10.8522 8.15804 10.4706 8.43934 10.1893C8.72064 9.90804 9.10218 9.75 9.5 9.75H11C11.3978 9.75 11.7794 9.90804 12.0607 10.1893C12.342 10.4706 12.5 10.8522 12.5 11.25V13.5H11V11.25H9.5V13.5H8V11.25Z" fill="#E2730D"/>
<path d="M8 3C8 2.80109 8.07902 2.61032 8.21967 2.46967C8.36032 2.32902 8.55109 2.25 8.75 2.25C8.94891 2.25 9.13968 2.32902 9.28033 2.46967C9.42098 2.61032 9.5 2.80109 9.5 3V3.75C9.5 3.94891 9.42098 4.13968 9.28033 4.28033C9.13968 4.42098 8.94891 4.5 8.75 4.5C8.55109 4.5 8.36032 4.42098 8.21967 4.28033C8.07902 4.13968 8 3.94891 8 3.75V3ZM8 6.75C8 6.55109 8.07902 6.36032 8.21967 6.21967C8.36032 6.07902 8.55109 6 8.75 6C8.94891 6 9.13968 6.07902 9.28033 6.21967C9.42098 6.36032 9.5 6.55109 9.5 6.75V7.5C9.5 7.69891 9.42098 7.88968 9.28033 8.03033C9.13968 8.17098 8.94891 8.25 8.75 8.25C8.55109 8.25 8.36032 8.17098 8.21967 8.03033C8.07902 7.88968 8 7.69891 8 7.5V6.75ZM2.75 9.75C2.75 9.55109 2.82902 9.36032 2.96967 9.21967C3.11032 9.07902 3.30109 9 3.5 9C3.69891 9 3.88968 9.07902 4.03033 9.21967C4.17098 9.36032 4.25 9.55109 4.25 9.75V10.5C4.25 10.6989 4.17098 10.8897 4.03033 11.0303C3.88968 11.171 3.69891 11.25 3.5 11.25C3.30109 11.25 3.11032 11.171 2.96967 11.0303C2.82902 10.8897 2.75 10.6989 2.75 10.5V9.75ZM11 3C11 2.80109 11.079 2.61032 11.2197 2.46967C11.3603 2.32902 11.5511 2.25 11.75 2.25C11.9489 2.25 12.1397 2.32902 12.2803 2.46967C12.421 2.61032 12.5 2.80109 12.5 3V3.75C12.5 3.94891 12.421 4.13968 12.2803 4.28033C12.1397 4.42098 11.9489 4.5 11.75 4.5C11.5511 4.5 11.3603 4.42098 11.2197 4.28033C11.079 4.13968 11 3.94891 11 3.75V3ZM11 6.75C11 6.55109 11.079 6.36032 11.2197 6.21967C11.3603 6.07902 11.5511 6 11.75 6C11.9489 6 12.1397 6.07902 12.2803 6.21967C12.421 6.36032 12.5 6.55109 12.5 6.75V7.5C12.5 7.69891 12.421 7.88968 12.2803 8.03033C12.1397 8.17098 11.9489 8.25 11.75 8.25C11.5511 8.25 11.3603 8.17098 11.2197 8.03033C11.079 7.88968 11 7.69891 11 7.5V6.75Z" fill="#E2730D"/>
</svg>
