<svg width="18" height="19" viewBox="0 0 18 19" fill="none" xmlns="http://www.w3.org/2000/svg">
<path d="M6.9 12.2L9 10.625L11.0625 12.2L10.275 9.65L12.375 8H9.825L9 5.45L8.175 8H5.625L7.6875 9.65L6.9 12.2ZM9 17C7.2625 16.5625 5.82825 15.5655 4.69725 14.009C3.56625 12.4525 3.0005 10.7245 3 8.825V4.25L9 2L15 4.25V8.825C15 10.725 14.4345 12.4532 13.3035 14.0098C12.1725 15.5663 10.738 16.563 9 17ZM9 15.425C10.3 15.0125 11.375 14.1875 12.225 12.95C13.075 11.7125 13.5 10.3375 13.5 8.825V5.28125L9 3.59375L4.5 5.28125V8.825C4.5 10.3375 4.925 11.7125 5.775 12.95C6.625 14.1875 7.7 15.0125 9 15.425Z" fill="#E2730D"/>
</svg>
