<svg width="20" height="20" viewBox="0 0 20 20" fill="none" xmlns="http://www.w3.org/2000/svg">
<path fill-rule="evenodd" clip-rule="evenodd" d="M1.6665 9.99996C1.6665 5.39746 5.39734 1.66663 9.99984 1.66663C14.6023 1.66663 18.3332 5.39746 18.3332 9.99996C18.3332 14.6025 14.6023 18.3333 9.99984 18.3333C5.39734 18.3333 1.6665 14.6025 1.6665 9.99996ZM8.089 6.91079C7.93184 6.75899 7.72133 6.675 7.50284 6.6769C7.28434 6.6788 7.07533 6.76644 6.92082 6.92094C6.76631 7.07545 6.67867 7.28446 6.67678 7.50296C6.67488 7.72146 6.75887 7.93196 6.91067 8.08913L8.8215 9.99996L6.91067 11.9108C6.83108 11.9877 6.76759 12.0796 6.72392 12.1813C6.68024 12.283 6.65726 12.3923 6.6563 12.503C6.65533 12.6136 6.67642 12.7233 6.71832 12.8258C6.76022 12.9282 6.8221 13.0212 6.90034 13.0995C6.97859 13.1777 7.07163 13.2396 7.17404 13.2815C7.27646 13.3234 7.38619 13.3445 7.49684 13.3435C7.60749 13.3425 7.71684 13.3196 7.81851 13.2759C7.92018 13.2322 8.01213 13.1687 8.089 13.0891L9.99984 11.1783L11.9107 13.0891C12.0678 13.2409 12.2783 13.3249 12.4968 13.323C12.7153 13.3211 12.9243 13.2335 13.0789 13.079C13.2334 12.9245 13.321 12.7155 13.3229 12.497C13.3248 12.2785 13.2408 12.068 13.089 11.9108L11.1782 9.99996L13.089 8.08913C13.2408 7.93196 13.3248 7.72146 13.3229 7.50296C13.321 7.28446 13.2334 7.07545 13.0789 6.92094C12.9243 6.76644 12.7153 6.6788 12.4968 6.6769C12.2783 6.675 12.0678 6.75899 11.9107 6.91079L9.99984 8.82163L8.089 6.91079Z" fill="#E84B48"/>
</svg>
