<svg width="30" height="30" viewBox="0 0 30 30" fill="none" xmlns="http://www.w3.org/2000/svg">
<rect width="30" height="30" rx="15" transform="matrix(1 0 0 -1 0 30)" fill="#F78012"/>
<path d="M13.475 21.9313L19.7937 15.6312C19.8687 15.5562 19.922 15.475 19.9535 15.3875C19.985 15.3 20.0005 15.2063 20 15.1063C20 15.0063 19.9842 14.9125 19.9527 14.825C19.9212 14.7375 19.8682 14.6562 19.7937 14.5812L13.475 8.2625C13.3 8.0875 13.0812 8 12.8187 8C12.5562 8 12.3312 8.09375 12.1437 8.28125C11.9562 8.46875 11.8625 8.6875 11.8625 8.9375C11.8625 9.1875 11.9562 9.40625 12.1437 9.59375L17.6562 15.1063L12.1437 20.6188C11.9687 20.7938 11.8812 21.0095 11.8812 21.266C11.8812 21.5225 11.975 21.7443 12.1625 21.9313C12.35 22.1188 12.5687 22.2125 12.8187 22.2125C13.0687 22.2125 13.2875 22.1188 13.475 21.9313Z" fill="white"/>
</svg>
