<svg width="30" height="30" viewBox="0 0 30 30" fill="none" xmlns="http://www.w3.org/2000/svg">
<g opacity="0.4">
<rect x="30" y="30" width="30" height="30" rx="15" transform="rotate(180 30 30)" fill="#F78012"/>
<path d="M16.525 21.9313L10.2063 15.6312C10.1313 15.5562 10.078 15.475 10.0465 15.3875C10.015 15.3 9.99951 15.2063 10 15.1063C10 15.0063 10.0158 14.9125 10.0473 14.825C10.0788 14.7375 10.1318 14.6562 10.2063 14.5812L16.525 8.2625C16.7 8.0875 16.9188 8 17.1813 8C17.4438 8 17.6688 8.09375 17.8563 8.28125C18.0438 8.46875 18.1375 8.6875 18.1375 8.9375C18.1375 9.1875 18.0438 9.40625 17.8563 9.59375L12.3438 15.1063L17.8563 20.6188C18.0313 20.7938 18.1188 21.0095 18.1188 21.266C18.1188 21.5225 18.025 21.7443 17.8375 21.9313C17.65 22.1188 17.4313 22.2125 17.1813 22.2125C16.9313 22.2125 16.7125 22.1188 16.525 21.9313Z" fill="white"/>
</g>
</svg>
