<svg width="80" height="85" viewBox="0 0 80 85" fill="none" xmlns="http://www.w3.org/2000/svg">
<g opacity="0.6">
<path d="M10.9133 11.5634C10.545 9.26748 11.596 8.92919 11.2245 6.63328C12.6598 7.89869 14.095 9.16098 15.5335 10.4264C17.353 9.17038 19.0169 7.69824 20.484 6.05383C20.0235 8.10856 19.2869 10.1038 18.2961 11.9674C20.0394 12.3026 21.716 12.9823 23.1958 13.9533C20.6078 14.4732 18.8677 15.275 16.2797 15.795C16.2861 18.2412 15.1842 20.4087 14.6857 22.8048C13.7807 20.4432 12.7709 18.1222 11.6532 15.8482C8.67462 16.5436 5.658 17.0792 2.61914 17.4551C5.55004 15.7073 7.06157 11.9988 10.9165 11.5634H10.9133Z" fill="#D1D3D4"/>
<path d="M14.6827 23.35C14.454 23.35 14.2445 23.2091 14.1651 22.9961C13.3236 20.7973 12.3741 18.6078 11.3453 16.4811C8.4938 17.1326 5.58512 17.64 2.68598 17.9971C2.4256 18.0315 2.17796 17.8781 2.09222 17.6337C2.00648 17.3894 2.10492 17.1201 2.33038 16.9854C3.36873 16.3652 4.21657 15.485 5.11839 14.5548C6.54415 13.0764 8.0143 11.551 10.3006 11.1031C10.2244 10.1572 10.3863 9.5276 10.5324 8.96067C10.7007 8.31231 10.8436 7.75477 10.6785 6.71801C10.6404 6.48936 10.7547 6.26384 10.9611 6.15108C11.1675 6.04145 11.4215 6.06964 11.5962 6.22311L15.575 9.72493C17.2198 8.55036 18.7281 7.19411 20.0681 5.69066C20.2364 5.50272 20.5096 5.4526 20.735 5.56222C20.9605 5.67498 21.0811 5.92556 21.0271 6.16987C20.608 8.04293 19.9665 9.8596 19.1155 11.5854C20.6715 11.9707 22.1766 12.6222 23.5039 13.4992C23.6913 13.6214 23.7834 13.8438 23.7389 14.0599C23.6945 14.276 23.5262 14.4483 23.3039 14.4921C22.0369 14.7458 20.9509 15.0779 19.8998 15.4005C18.944 15.6918 17.9565 15.9925 16.8229 16.243C16.7499 17.7183 16.3244 19.0996 15.9116 20.437C15.6607 21.242 15.4035 22.0783 15.2288 22.9178C15.178 23.1558 14.9748 23.3343 14.7303 23.3531C14.7145 23.3531 14.7017 23.3531 14.6858 23.3531L14.6827 23.35ZM11.6501 15.3002C11.8597 15.3002 12.0534 15.4161 12.1487 15.6072C13.0156 17.3738 13.8285 19.1842 14.5716 21.0134C14.6605 20.7096 14.7557 20.4089 14.8446 20.1113C15.2955 18.6517 15.7242 17.2735 15.721 15.792C15.721 15.532 15.9052 15.3065 16.1656 15.2533C17.4326 14.9995 18.5186 14.6675 19.5697 14.3449C20.2587 14.1351 20.9605 13.9189 21.7226 13.7247C20.6112 13.1515 19.4109 12.7318 18.1883 12.5001C18.0169 12.4656 17.8708 12.356 17.7946 12.1994C17.7184 12.0427 17.7216 11.8611 17.8041 11.7076C18.4392 10.5142 18.9663 9.26762 19.3823 7.98654C18.2868 9.03896 17.1055 10.0037 15.8544 10.8682C15.6416 11.0154 15.359 10.9966 15.1653 10.8275L11.8502 7.90824C11.8153 8.42819 11.7073 8.84164 11.6089 9.2269C11.4406 9.87527 11.2977 10.4328 11.4628 11.4696C11.4851 11.6168 11.4469 11.7671 11.358 11.8861C11.2691 12.0052 11.1294 12.0803 10.9802 12.0991C8.77327 12.3497 7.38881 13.7843 5.92178 15.3034C5.4931 15.7482 5.05483 16.2023 4.59122 16.6283C6.91879 16.2838 9.24322 15.8421 11.5263 15.3096C11.5676 15.3002 11.612 15.294 11.6533 15.294L11.6501 15.3002Z" fill="#D1D3D4"/>
<path d="M78.5788 84.265C78.2199 84.265 77.8897 84.0363 77.7817 83.6793C74.1808 71.8208 70.5546 61.3749 62.5938 53.6509C58.3134 49.5007 52.8961 46.3716 46.9041 44.5925C46.7961 47.0137 46.2182 49.3973 45.1735 51.6149C43.3794 55.4206 40.5501 58.3178 37.2096 59.7743C33.234 61.5096 28.5376 60.8956 26.0449 58.3116C24.5302 56.7423 23.8952 54.5561 24.254 52.1568C24.7525 48.8273 27.0705 45.5604 30.157 43.8314C35.0821 41.0719 40.7979 41.4321 45.2117 42.447C45.0466 40.2638 44.4717 38.0776 43.4842 36.0009C41.1725 31.1303 36.9524 27.5784 31.9067 26.2598C31.5447 26.1658 31.17 26.0718 30.7889 25.9779C27.5373 25.1697 23.4919 24.1675 22.9393 20.7252C22.8663 20.2773 23.1775 19.8575 23.6316 19.7855C24.0825 19.7135 24.5111 20.0204 24.5842 20.4683C24.9652 22.8394 28.1311 23.6256 31.1954 24.3836C31.5828 24.4807 31.9639 24.5746 32.3354 24.6717C37.8574 26.1157 42.4712 29.9902 44.9925 35.3024C46.1484 37.7393 46.7866 40.3139 46.9041 42.8792C46.92 42.8855 46.9359 42.8886 46.955 42.8949C53.3756 44.7303 59.1866 48.0442 63.7624 52.4825C72.0057 60.479 75.7114 71.1285 79.379 83.2094C79.5123 83.6448 79.2615 84.1021 78.8201 84.2305C78.7407 84.2556 78.6613 84.265 78.5819 84.265H78.5788ZM38.9815 43.3365C36.2951 43.3365 33.5071 43.8408 30.9763 45.2565C28.3185 46.7443 26.3275 49.5477 25.8988 52.3948C25.6988 53.7323 25.7686 55.6461 27.2484 57.1777C29.2743 59.2763 33.18 59.7336 36.5364 58.2709C39.5086 56.9741 42.0394 54.365 43.6652 50.9196C44.6718 48.7865 45.2021 46.4812 45.2561 44.1415C43.3699 43.6811 41.2106 43.3334 38.9847 43.3334L38.9815 43.3365Z" fill="white"/>
<path d="M14.3591 26.0342C14.3591 26.0342 14.3337 26.0342 14.321 26.0342C13.9463 26.0185 13.6288 25.7586 13.5462 25.3983L11.606 17.0322C8.25914 17.8372 4.82019 18.2882 1.37488 18.3697C0.990652 18.3947 0.644502 18.1222 0.54924 17.7526C0.453978 17.383 0.62865 16.9946 0.971594 16.8192C2.96575 15.8013 4.60741 14.6016 6.34753 13.33C7.2811 12.6471 8.24326 11.9455 9.29432 11.2471C9.09109 9.90648 8.97364 8.60661 8.8625 7.3412C8.68151 5.32719 8.51316 3.42596 8.01462 1.42449C7.91936 1.03922 8.11622 0.638297 8.48457 0.478554C8.85292 0.31568 9.28477 0.440966 9.51022 0.769847C11.244 3.30067 13.2572 5.64982 15.4991 7.75779L21.8181 2.90915C22.1166 2.6805 22.5294 2.67736 22.8311 2.90288C23.1328 3.12526 23.2439 3.51992 23.101 3.86446L20.078 11.2565L26.27 13.6777C26.6415 13.8217 26.8543 14.207 26.7813 14.5923C26.7083 14.9775 26.3685 15.2594 25.9684 15.2625C23.5551 15.2782 21.6372 15.5852 19.4175 15.9391C18.9444 16.0143 18.4617 16.0926 17.9568 16.1677C17.6742 18.5232 16.855 20.7376 16.0611 22.8832C15.7468 23.7289 15.4228 24.6059 15.1402 25.4704C15.0291 25.8118 14.7084 26.0404 14.3495 26.0404L14.3591 26.0342ZM12.2284 15.2062C12.3776 15.2062 12.5269 15.2469 12.6603 15.3252C12.854 15.4411 12.9905 15.629 13.0413 15.8451L14.5306 22.263C15.3911 19.9421 16.1977 17.7432 16.3723 15.3878C16.4009 15.0057 16.6962 14.6925 17.0804 14.6361C17.8108 14.5296 18.4967 14.42 19.1635 14.3135C20.2273 14.1443 21.2243 13.9846 22.2404 13.8624L18.6967 12.478C18.4903 12.3966 18.3251 12.24 18.2394 12.0395C18.1505 11.839 18.1505 11.6104 18.233 11.4099L20.4114 6.07893L15.969 9.48677C15.6483 9.73421 15.1943 9.71542 14.8926 9.44291C13.2255 7.92693 11.6759 6.28252 10.2565 4.53162C10.3644 5.4337 10.4438 6.32323 10.5232 7.20025C10.6471 8.59721 10.7772 10.0412 11.0249 11.507C11.0789 11.8265 10.936 12.1491 10.6598 12.3277C9.46898 13.0982 8.38618 13.8875 7.34147 14.6518C6.45553 15.297 5.59497 15.9266 4.69316 16.528C7.16362 16.293 9.61505 15.8608 12.0157 15.2344C12.0855 15.2156 12.1554 15.2062 12.2284 15.2062Z" fill="white"/>
</g>
</svg>
