<svg width="20" height="21" viewBox="0 0 20 21" fill="none" xmlns="http://www.w3.org/2000/svg">
<path d="M13.8335 5.35C13.2639 4.69961 12.95 3.8645 12.9501 3H10.3751V13.3333C10.3557 13.8927 10.1197 14.4226 9.71705 14.8112C9.31438 15.1999 8.77646 15.417 8.2168 15.4167C7.03346 15.4167 6.05013 14.45 6.05013 13.25C6.05013 11.8167 7.43346 10.7417 8.85846 11.1833V8.55C5.98346 8.16667 3.4668 10.4 3.4668 13.25C3.4668 16.025 5.7668 18 8.20846 18C10.8251 18 12.9501 15.875 12.9501 13.25V8.00833C13.9943 8.75821 15.2479 9.16054 16.5335 9.15833V6.58333C16.5335 6.58333 14.9668 6.65833 13.8335 5.35Z" fill="white"/>
</svg>
