<svg width="16" height="13" viewBox="0 0 16 13" fill="none" xmlns="http://www.w3.org/2000/svg">
<path d="M14.9699 7.08905C15.1261 6.93277 15.2139 6.72085 15.2139 6.49988C15.2139 6.27891 15.1261 6.06699 14.9699 5.91071L10.2557 1.19655C10.1788 1.11695 10.0869 1.05347 9.98522 1.00979C9.88355 0.96612 9.7742 0.943132 9.66355 0.94217C9.5529 0.941209 9.44316 0.962294 9.34075 1.00419C9.23834 1.0461 9.14529 1.10797 9.06705 1.18622C8.98881 1.26446 8.92693 1.3575 8.88503 1.45992C8.84313 1.56233 8.82204 1.67206 8.823 1.78271C8.82396 1.89336 8.84695 2.00271 8.89063 2.10438C8.9343 2.20605 8.99779 2.29801 9.07738 2.37488L12.369 5.66655H1.33321C1.1122 5.66655 0.900236 5.75434 0.743957 5.91062C0.587676 6.0669 0.499879 6.27887 0.499879 6.49988C0.499879 6.72089 0.587676 6.93285 0.743957 7.08913C0.900236 7.24541 1.1122 7.33321 1.33321 7.33321H12.369L9.07738 10.6249C8.92558 10.782 8.84159 10.9925 8.84348 11.211C8.84538 11.4295 8.93302 11.6386 9.08753 11.7931C9.24204 11.9476 9.45105 12.0352 9.66954 12.0371C9.88804 12.039 10.0985 11.955 10.2557 11.8032L14.9699 7.08905Z" fill="white"/>
</svg>
