<svg width="12" height="13" viewBox="0 0 12 13" fill="none" xmlns="http://www.w3.org/2000/svg">
<path d="M6.03919 4.83264C5.84797 4.83264 5.69041 4.68121 5.68637 4.49259L5.5948 0.356274C5.59076 0.163671 5.74563 0.00427599 5.93954 0.000291097C6.13749 -0.00767869 6.29639 0.14906 6.30043 0.340335L6.392 4.47665C6.39604 4.66926 6.24118 4.82865 6.04727 4.83264C6.04458 4.83264 6.04188 4.83264 6.03919 4.83264Z" fill="white"/>
<path d="M0.352815 6.37997C0.157555 6.37997 0 6.22456 0 6.03195C0 5.83935 0.157555 5.68394 0.352815 5.68394C1.65366 5.68394 2.96661 5.68261 4.26072 5.68394C4.45598 5.68394 4.61354 5.84068 4.61354 6.03195C4.61354 6.22456 4.45598 6.37997 4.26072 6.37997C2.96661 6.37864 1.65366 6.37997 0.352815 6.37997Z" fill="white"/>
<path d="M6.28154 12.5341C6.09436 12.5341 5.93816 12.388 5.92873 12.202L5.73078 7.81995C5.7227 7.62735 5.87352 7.46529 6.06744 7.45599C6.26539 7.44802 6.42698 7.59679 6.43641 7.78807L6.63436 12.1701C6.64244 12.3627 6.49162 12.5248 6.2977 12.5341C6.29232 12.5341 6.28693 12.5341 6.28154 12.5341Z" fill="white"/>
<path d="M10.6011 6.52752C9.59244 6.52752 8.57978 6.49166 7.57789 6.41993C7.38397 6.40665 7.23719 6.23929 7.25201 6.04801C7.26547 5.85674 7.4338 5.71328 7.62906 5.72656C8.95818 5.8222 10.3075 5.85275 11.638 5.81954C11.8346 5.81423 11.9948 5.96698 12.0002 6.15826C12.0056 6.35086 11.8507 6.51026 11.6568 6.51557C11.3067 6.52487 10.9539 6.52885 10.6011 6.52885V6.52752Z" fill="white"/>
</svg>
