<svg width="54" height="34" viewBox="0 0 54 34" fill="none" xmlns="http://www.w3.org/2000/svg">
<g opacity="0.6">
<path d="M27.1687 29.8135C27.6461 29.9083 28.1637 29.9733 28.4232 29.5841C28.744 29.1031 29.2327 28.7116 29.7189 28.3851C30.3982 27.9297 31.193 27.6714 31.9247 28.0605C32.2098 28.2122 32.455 28.2042 32.7629 28.3062C33.3153 28.4888 33.9039 28.2191 34.4203 27.9667C39.6272 25.4229 45.4034 23.9219 51.2676 23.5905C51.4754 23.579 51.654 23.4273 51.6619 23.2298C51.6724 22.9531 51.3605 22.871 51.1105 22.844C49.2756 22.6463 47.4077 22.757 45.6194 23.1703C44.0152 23.5412 42.4857 24.1493 40.9647 24.7552C38.6449 25.6794 36.3244 26.603 33.959 27.493C33.3738 27.6012 32.7962 27.3128 32.2206 27.1568C30.4589 26.6798 28.4141 27.6075 27.7109 29.2038C24.5165 28.7618 21.2783 28.5046 18.0672 28.7455C14.8561 28.9865 11.6609 29.741 8.85681 31.2263C8.75402 30.9309 3.58555 19.9737 3.17536 19.4767C3.06759 19.3461 3.42188 18.6142 3.1822 18.5595C2.81089 18.4745 1.83685 19.1155 1.87352 19.1825C5.65979 26.081 6.92177 29.486 8.05104 31.7187C8.12176 31.8581 8.33011 32.1402 8.47639 32.2088C8.64987 32.2899 8.78822 32.2023 8.91528 32.1205C10.1329 31.3372 11.4668 30.7171 12.8663 30.2823C13.5095 30.0827 14.1666 29.9222 14.8283 29.7845C18.7766 28.9619 22.9185 28.9522 26.8884 29.7557C26.9822 29.7747 27.0769 29.7943 27.1693 29.8128L27.1687 29.8135Z" fill="#D1D3D4"/>
<path d="M8.66472 32.3506C8.59204 32.3589 8.51287 32.3492 8.42688 32.3092C8.23906 32.2214 8.0176 31.9072 7.94671 31.7666C7.61009 31.1009 7.27 30.3508 6.84009 29.4002C5.82308 27.1542 4.43033 24.0789 1.77173 19.2348C1.75667 19.208 1.73967 19.1524 1.7936 19.0855C1.91686 18.9317 2.7952 18.3567 3.20881 18.4517C3.45958 18.509 3.38638 18.8278 3.32218 19.1093C3.2981 19.2129 3.26297 19.3682 3.27355 19.4162C3.74832 20.0273 8.35203 29.8521 8.91296 31.069C11.5153 29.7136 14.5922 28.8944 18.0575 28.6335C20.8441 28.4243 23.8906 28.5663 27.6397 29.0806C28.4013 27.4694 30.4492 26.5602 32.2515 27.0494C32.3971 27.089 32.5439 27.1369 32.6858 27.1834C33.1144 27.3239 33.5171 27.457 33.9253 27.3844C36.2881 26.4955 38.6421 25.5578 40.9187 24.6516C42.4207 24.0538 43.9735 23.4353 45.5901 23.0617C47.4011 22.6433 49.2623 22.5327 51.1211 22.7335C51.6769 22.7935 51.785 23.0398 51.7777 23.2366C51.7684 23.4872 51.5535 23.6877 51.2758 23.7033C45.4557 24.0328 39.6452 25.5415 34.4743 28.0673C33.9987 28.2995 33.347 28.6177 32.7264 28.4126C32.6125 28.3751 32.5055 28.3531 32.4019 28.3313C32.2327 28.2963 32.0586 28.26 31.869 28.1594C31.2742 27.8433 30.5735 27.9505 29.786 28.4783C29.1866 28.8798 28.7844 29.2511 28.5209 29.6459C28.2213 30.0947 27.654 30.0244 27.1463 29.9233L26.8647 29.8663C22.9253 29.0691 18.772 29.0789 14.8539 29.8953C14.1264 30.047 13.4881 30.2085 12.903 30.3905C11.5112 30.8225 10.1912 31.4363 8.98037 32.2149C8.89528 32.2699 8.78977 32.3376 8.66423 32.3519L8.66472 32.3506ZM2.00949 19.1921C4.65104 24.0097 6.03885 27.0733 7.053 29.3132C7.48181 30.2606 7.82106 31.0095 8.15565 31.6703C8.22462 31.8066 8.41795 32.0574 8.52617 32.1077C8.63513 32.1587 8.71976 32.1102 8.8493 32.0268C10.078 31.2365 11.4169 30.614 12.8287 30.1759C13.4209 29.9918 14.0663 29.8282 14.8016 29.6749C18.7518 28.8523 22.9385 28.8419 26.9097 29.6458L27.1899 29.7023C27.7417 29.8119 28.1247 29.8205 28.3241 29.5216C28.6042 29.1016 29.026 28.7113 29.6505 28.292C30.5044 27.7198 31.3095 27.6058 31.9789 27.9619C32.1375 28.0466 32.2811 28.0761 32.4476 28.1107C32.5581 28.1337 32.672 28.1575 32.7985 28.1993C33.2862 28.3602 33.8182 28.1332 34.3662 27.8656C39.5647 25.3263 45.4057 23.809 51.2585 23.4783C51.4131 23.4709 51.5392 23.3576 51.5444 23.2238C51.5464 23.1692 51.5526 23.0036 51.0976 22.9547C49.2662 22.7573 47.4322 22.8661 45.6465 23.2784C44.0476 23.648 42.503 24.263 41.0092 24.8573C38.7283 25.7659 36.3697 26.7048 34.0011 27.5956C33.9948 27.5983 33.9876 27.5998 33.9811 27.6012C33.5105 27.6886 33.0538 27.5384 32.6119 27.3936C32.4728 27.348 32.3288 27.3011 32.1894 27.2628C30.4953 26.8039 28.4935 27.7123 27.8174 29.2465C27.7969 29.2928 27.7469 29.3199 27.695 29.3129C23.9234 28.7914 20.8676 28.646 18.0771 28.8557C14.5932 29.1174 11.5104 29.9476 8.91347 31.3231C8.88275 31.3389 8.84681 31.341 8.81424 31.3286C8.78167 31.3161 8.7567 31.2905 8.74565 31.2588C8.71673 31.1748 3.5045 20.0552 3.08391 19.5458C3.00273 19.4478 3.04078 19.2843 3.09294 19.0572C3.11934 18.9411 3.16823 18.7292 3.14556 18.6665C2.88033 18.6211 2.17881 19.0414 2.00865 19.1909L2.00949 19.1921Z" fill="#D1D3D4"/>
<path d="M30.0864 20.0683C30.0659 20.0707 30.044 20.0682 30.0233 20.0592C29.9648 20.0336 29.9393 19.9678 29.9663 19.9124C31.484 16.7853 34.1005 14.1993 37.335 12.632C37.3925 12.6042 37.4626 12.6258 37.492 12.6803C37.5213 12.7348 37.4985 12.8012 37.4416 12.829C34.254 14.3742 31.6743 16.9226 30.1789 20.0051C30.1615 20.0409 30.1262 20.0642 30.0871 20.0688L30.0864 20.0683Z" fill="#D1D3D4"/>
<path d="M28.365 17.8503C28.3438 17.8528 28.3212 17.8497 28.3005 17.8407C28.2426 17.8144 28.2177 17.7486 28.2455 17.6937C28.8883 16.4149 29.7175 15.2294 30.71 14.1703C30.7524 14.1245 30.8265 14.1208 30.8749 14.161C30.9233 14.2017 30.9271 14.2714 30.8847 14.3171C29.9069 15.3604 29.0895 16.5287 28.4564 17.7891C28.4389 17.8243 28.4035 17.847 28.3658 17.8515L28.365 17.8503Z" fill="#D1D3D4"/>
<path d="M32.1477 13.0811C32.1159 13.0848 32.0832 13.0766 32.0568 13.0549C32.0078 13.0148 32.0027 12.9454 32.045 12.8989C33.0325 11.8169 33.8646 11.3559 35.1408 10.6939C35.1975 10.6648 35.2679 10.6839 35.2992 10.7375C35.3298 10.7912 35.3097 10.8579 35.2531 10.8876C34.0002 11.5379 33.1831 11.9902 32.222 13.0429C32.2027 13.0644 32.1761 13.0771 32.1483 13.0804L32.1477 13.0811Z" fill="#D1D3D4"/>
<path d="M26.1604 15.8152C26.1445 15.817 26.1282 15.8158 26.1121 15.8113C26.0506 15.7931 26.0162 15.7316 26.0347 15.6733C26.2644 14.9633 26.6527 14.2879 27.1566 13.7193C27.1981 13.6723 27.2713 13.6662 27.3209 13.7056C27.3704 13.7449 27.3762 13.8143 27.3353 13.8612C26.8513 14.4071 26.4785 15.0564 26.2578 15.738C26.244 15.781 26.2047 15.8099 26.1604 15.8152Z" fill="#D1D3D4"/>
<path d="M28.1144 12.8212C28.0853 12.8247 28.0548 12.8181 28.0296 12.8001C27.9784 12.7635 27.9678 12.694 28.0072 12.6454C29.4717 10.8068 31.0039 9.60356 33.1296 8.62177C33.1872 8.59519 33.2574 8.61745 33.2855 8.67272C33.3136 8.72736 33.2895 8.79393 33.2318 8.82051C31.1417 9.78599 29.6344 10.9697 28.1935 12.7787C28.1739 12.8034 28.1449 12.8182 28.1152 12.8218L28.1144 12.8212Z" fill="#D1D3D4"/>
<path d="M24.021 13.8417C24.0025 13.8439 23.9827 13.8418 23.9643 13.8351C23.9043 13.8129 23.875 13.7488 23.8984 13.6919C24.7527 11.6218 26.4113 9.99972 28.0356 8.51612C28.0818 8.4737 28.1559 8.47511 28.2007 8.51885C28.2455 8.5626 28.244 8.63284 28.1978 8.67526C26.5914 10.1421 24.9531 11.7439 24.1155 13.7726C24.0991 13.8115 24.0621 13.8369 24.021 13.8417Z" fill="#D1D3D4"/>
<path d="M29.4345 7.74669C29.3981 7.751 29.3602 7.73893 29.3336 7.71086C29.2907 7.66563 29.2942 7.59577 29.342 7.55508C29.7733 7.18549 30.2552 6.87361 30.7754 6.62726C30.833 6.60006 30.9032 6.62231 30.9319 6.67688C30.9606 6.73144 30.9371 6.79792 30.8795 6.82513C30.3784 7.06285 29.9138 7.36376 29.4981 7.7194C29.4793 7.735 29.4577 7.74457 29.4346 7.74731L29.4345 7.74669Z" fill="#D1D3D4"/>
<path d="M45.7373 20.4909C45.6811 20.4976 45.6263 20.4645 45.6105 20.4109C45.5933 20.3524 45.629 20.2914 45.6913 20.2745C46.9424 19.9413 48.2266 19.6706 49.5092 19.4696C49.5711 19.4597 49.6329 19.5002 49.6436 19.5608C49.6542 19.6207 49.6114 19.6781 49.5474 19.6876C48.2734 19.8876 46.9977 20.1567 45.7544 20.4876C45.7485 20.489 45.7426 20.4903 45.7373 20.4909Z" fill="#D1D3D4"/>
<path d="M47.8403 21.0167C47.7834 21.0235 47.7285 20.9899 47.7134 20.9363C47.6968 20.8772 47.7333 20.8169 47.7957 20.8006C48.4675 20.6281 49.161 20.5338 49.8572 20.5207C49.9216 20.5195 49.9751 20.5679 49.9757 20.6289C49.977 20.6898 49.9278 20.7395 49.8615 20.7417C49.1841 20.7545 48.5097 20.8464 47.8561 21.0142C47.8509 21.0155 47.845 21.0168 47.8397 21.0174L47.8403 21.0167Z" fill="#D1D3D4"/>
<path d="M43.4348 21.1443C43.3785 21.1509 43.3244 21.1179 43.308 21.0651C43.2902 21.0068 43.3265 20.9452 43.3882 20.929L44.677 20.5816C44.7393 20.5647 44.8037 20.599 44.8208 20.6575C44.8386 20.7158 44.8024 20.7774 44.7406 20.7936L43.4518 21.141C43.4459 21.1423 43.4401 21.1436 43.4341 21.1444L43.4348 21.1443Z" fill="#D1D3D4"/>
<path d="M32.2799 26.6708C32.2442 26.675 32.207 26.6635 32.18 26.6368C32.1358 26.5923 32.1387 26.5226 32.1856 26.4807C33.1499 25.6256 34.2454 24.9238 35.4423 24.3948C35.5014 24.3687 35.5699 24.393 35.5973 24.4484C35.6248 24.5037 35.5992 24.5692 35.5414 24.5951C34.3674 25.1145 33.2917 25.8037 32.3455 26.6426C32.3269 26.6595 32.3038 26.6686 32.28 26.6714L32.2799 26.6708Z" fill="#D1D3D4"/>
<path d="M33.198 26.8485C33.1596 26.8531 33.1194 26.8393 33.0933 26.8093C33.0521 26.7625 33.0596 26.6921 33.109 26.6537C33.5162 26.3358 33.9539 26.0448 34.4085 25.7907C34.4642 25.7592 34.5352 25.7776 34.5683 25.8298C34.6009 25.8827 34.5822 25.95 34.5271 25.9814C34.0825 26.2298 33.6553 26.5131 33.2573 26.8243C33.2396 26.8379 33.2191 26.846 33.198 26.8485Z" fill="#D1D3D4"/>
<path d="M31.6178 26.1485C31.596 26.151 31.5734 26.148 31.5526 26.1383C31.4989 26.1135 31.4737 26.0547 31.4935 26.0014C32.4092 23.6061 33.9944 21.0825 35.9576 18.895C38.1452 16.4573 40.5767 14.6909 43.1853 13.6442C43.244 13.6207 43.3127 13.6463 43.3382 13.7025C43.3631 13.7588 43.3353 13.8233 43.2766 13.8474C40.7019 14.8805 38.2993 16.6264 36.1357 19.0376C34.4475 20.9186 33.0418 23.0502 32.1067 25.13C33.6192 23.1557 35.7671 21.4152 38.5076 19.9465C41.282 18.4598 44.3213 17.4169 47.2604 16.4082C47.3214 16.387 47.388 16.4173 47.4097 16.4746C47.4313 16.5319 47.4001 16.5955 47.3396 16.6161C44.4095 17.6212 41.3798 18.661 38.6223 20.1387C35.5296 21.7962 33.2013 23.8002 31.7024 26.0964C31.6835 26.126 31.6515 26.1438 31.6178 26.1478L31.6178 26.1485Z" fill="#D1D3D4"/>
<path d="M9.24845 27.3552C9.19416 27.3616 9.14103 27.3309 9.12347 27.2795C9.10368 27.2212 9.13718 27.1592 9.1985 27.1398C10.3278 26.7912 11.4916 26.5047 12.6571 26.2876C12.7195 26.2757 12.7818 26.3149 12.7944 26.3746C12.807 26.4344 12.7656 26.4928 12.7026 26.5048C11.5463 26.7202 10.3917 27.0049 9.2707 27.3507C9.26358 27.3528 9.25639 27.3543 9.24911 27.3551L9.24845 27.3552Z" fill="#D1D3D4"/>
<path d="M13.4508 26.3365C13.3886 26.3439 13.3308 26.303 13.3209 26.2437C13.3109 26.1832 13.3546 26.1271 13.4186 26.1176L14.3342 25.9843C14.3981 25.9742 14.4575 26.0162 14.4675 26.0767C14.4775 26.1373 14.4338 26.1934 14.3698 26.2028L13.4541 26.3361C13.4541 26.3361 13.4522 26.3364 13.4508 26.3365Z" fill="#D1D3D4"/>
<path d="M9.54097 28.202C9.48933 28.2081 9.43794 28.1804 9.41815 28.1324C9.39447 28.0752 9.42434 28.0111 9.48467 27.9893C10.2778 27.697 11.1004 27.4593 11.9311 27.2831C11.9933 27.27 12.056 27.3072 12.0706 27.3667C12.0845 27.4263 12.0452 27.4851 11.9825 27.4989C11.1635 27.6725 10.3519 27.907 9.56969 28.1954C9.56075 28.199 9.55091 28.2008 9.54164 28.2019L9.54097 28.202Z" fill="#D1D3D4"/>
<path d="M28.7346 27.143C28.716 27.1452 28.6962 27.1431 28.6771 27.1358C27.7934 26.8035 26.8639 26.6123 25.9146 26.5675C25.8503 26.5642 25.8004 26.5128 25.8038 26.4519C25.8072 26.391 25.8622 26.3437 25.9258 26.347C26.9008 26.3933 27.8553 26.5892 28.763 26.9307C28.8231 26.9529 28.8525 27.0176 28.8283 27.0739C28.8119 27.1128 28.775 27.1382 28.7346 27.143Z" fill="#D1D3D4"/>
<path d="M27.9451 27.7258C27.9279 27.7278 27.9095 27.7262 27.892 27.7206C27.5269 27.5987 27.1298 27.545 26.7439 27.5652C26.6797 27.5683 26.6245 27.5219 26.6212 27.4611C26.6179 27.4003 26.6661 27.348 26.7309 27.3448C27.1476 27.3229 27.5755 27.3806 27.9694 27.5125C28.0299 27.5327 28.0618 27.5959 28.0404 27.6533C28.025 27.694 27.9876 27.7214 27.9452 27.7264L27.9451 27.7258Z" fill="#D1D3D4"/>
<path d="M9.0442 30.2803C8.99653 30.286 8.94852 30.2636 8.92608 30.221C8.8976 30.1683 8.91861 30.1033 8.97323 30.0738C9.53949 29.774 10.1349 29.5115 10.7416 29.2937C10.7999 29.2721 10.866 29.2993 10.89 29.3539C10.914 29.4084 10.8888 29.472 10.8316 29.4972L9.07854 30.2705C9.06712 30.2757 9.05537 30.2784 9.04345 30.2798L9.0442 30.2803Z" fill="#D1D3D4"/>
<path d="M8.99876 30.1776C8.94315 30.1842 8.88911 30.1518 8.8728 30.0995C8.72804 29.6396 8.54207 29.1883 8.31836 28.7568C8.2903 28.7022 8.31381 28.6357 8.37149 28.6091C8.42983 28.5825 8.49934 28.6048 8.5274 28.6594C8.75657 29.1018 8.94742 29.5645 9.09574 30.0362C9.1142 30.0945 9.07928 30.156 9.01705 30.1735C9.0106 30.1756 9.00463 30.1763 8.99801 30.1771L8.99876 30.1776Z" fill="#D1D3D4"/>
<path d="M8.94114 27.7081C8.89413 27.7136 8.84687 27.6919 8.82386 27.65L7.5846 25.4183C7.55464 25.3645 7.57671 25.2975 7.63348 25.2692C7.69025 25.2408 7.76092 25.2617 7.79088 25.3155L9.03017 27.5472C9.06013 27.601 9.03803 27.6679 8.98126 27.6963C8.96869 27.7029 8.95504 27.7064 8.94114 27.7081Z" fill="#D1D3D4"/>
<path d="M7.3463 24.8015C7.29863 24.8071 7.25054 24.7841 7.22744 24.7416L6.93149 24.1855C6.9021 24.131 6.92558 24.0644 6.98318 24.0372C7.04077 24.01 7.11089 24.0316 7.13961 24.0863L7.43556 24.6423C7.46495 24.6969 7.44147 24.7634 7.38388 24.7907C7.37188 24.7965 7.35888 24.8 7.34564 24.8016L7.3463 24.8015Z" fill="#D1D3D4"/>
<path d="M4.43135 19.2166C4.38303 19.2223 4.33487 19.1987 4.31236 19.1555C3.94108 18.4364 3.48275 17.7556 2.95077 17.1332C2.91022 17.0858 2.91783 17.0161 2.9679 16.9776C3.01796 16.9392 3.09153 16.9464 3.13208 16.9939C3.67515 17.629 4.14268 18.3233 4.52206 19.0581C4.55012 19.1127 4.52661 19.1792 4.46827 19.2058C4.45619 19.2111 4.44393 19.2151 4.43135 19.2166Z" fill="#D1D3D4"/>
<path d="M30.4259 26.9114C30.3988 26.9146 30.3697 26.9085 30.3455 26.8929C28.9263 25.9673 27.6368 25.1486 26.2323 24.492C24.7934 23.8197 23.2421 23.3302 21.742 22.8563C21.0291 22.6311 20.293 22.3985 19.5554 22.2203C17.359 21.6874 15.0539 21.6 12.8251 21.5149C11.8831 21.4793 10.9093 21.4418 9.63649 21.5697C9.58543 21.5751 9.53678 21.5477 9.51675 21.503C8.46284 19.1321 7.17489 16.8373 5.68967 14.6831C5.65466 14.6319 5.66989 14.5638 5.72327 14.5301C5.77672 14.497 5.84921 14.5113 5.88479 14.5619C7.36249 16.7049 8.64514 18.985 9.69856 21.3419C10.9463 21.2228 11.9058 21.2588 12.8351 21.2946C15.076 21.3801 17.3939 21.468 19.6139 22.0063C20.3592 22.1869 21.0995 22.4209 21.8158 22.6469C23.3237 23.1231 24.882 23.615 26.3359 24.2938C27.754 24.9564 29.0509 25.7806 30.4781 26.7109C30.5311 26.7454 30.5443 26.8146 30.5078 26.8648C30.4886 26.8919 30.4584 26.9082 30.426 26.912L30.4259 26.9114Z" fill="#D1D3D4"/>
<path d="M30.2476 26.3287C30.2119 26.3329 30.174 26.3215 30.1476 26.2947C28.2783 24.3943 26.3448 22.4295 23.9664 21.0481C21.0986 19.3819 17.5035 18.4918 12.6533 18.2452C12.6086 18.2429 12.5695 18.2169 12.5522 18.1776C11.4833 15.7798 10.2819 13.4022 8.98166 11.1108C8.95104 11.0571 8.97247 10.9902 9.02915 10.9612C9.08584 10.9322 9.15643 10.9525 9.18705 11.0062C10.4794 13.2832 11.6741 15.6457 12.7382 18.0281C17.5928 18.2818 21.2006 19.1819 24.0881 20.8598C26.4941 22.2571 28.438 24.2333 30.3181 26.1445C30.3616 26.1891 30.3594 26.2588 30.3125 26.3006C30.2938 26.3169 30.2709 26.3266 30.2477 26.3293L30.2476 26.3287Z" fill="#D1D3D4"/>
<path d="M21.6628 17.4977C21.6429 17.5 21.6224 17.4974 21.6025 17.4895C19.4313 16.6122 17.1342 16.1117 14.7759 16.0031C14.7116 15.9999 14.6618 15.9485 14.6652 15.8876C14.6686 15.8266 14.7235 15.7794 14.7871 15.7827C17.1732 15.8924 19.4965 16.3988 21.6941 17.2863C21.7531 17.3105 21.7805 17.3754 21.7556 17.4313C21.739 17.4689 21.7025 17.493 21.6628 17.4977Z" fill="#D1D3D4"/>
<path d="M17.9054 13.9572C17.8869 13.9594 17.8678 13.9572 17.8495 13.9511C16.5942 13.4978 14.705 13.0872 13.5401 13.2532C13.477 13.2639 13.4168 13.2207 13.4076 13.1606C13.3983 13.1006 13.4419 13.0438 13.5053 13.035C14.7156 12.8617 16.6502 13.281 17.9325 13.7444C17.9925 13.766 18.0231 13.8299 17.9997 13.8868C17.984 13.9262 17.9465 13.9523 17.9054 13.9572Z" fill="#D1D3D4"/>
<path d="M20.5883 15.0566C20.5598 15.06 20.53 15.0533 20.5056 15.0365C20.1314 14.7789 19.716 14.5866 19.2716 14.4647C19.2096 14.4479 19.1739 14.3865 19.1924 14.3276C19.2101 14.2688 19.2749 14.235 19.3371 14.2525C19.8074 14.3822 20.2471 14.5855 20.6434 14.8577C20.6952 14.8936 20.7071 14.9629 20.6692 15.012C20.6497 15.0379 20.6201 15.0528 20.589 15.0565L20.5883 15.0566Z" fill="#D1D3D4"/>
<path d="M17.1733 12.2482C17.1534 12.2506 17.1329 12.2479 17.1138 12.2406C16.144 11.8523 14.1491 11.1803 12.8204 11.1236C12.7561 11.121 12.7063 11.0696 12.709 11.0081C12.7117 10.9473 12.7666 10.9 12.8309 10.9026C14.1927 10.9604 16.2206 11.6426 17.2045 12.0369C17.2635 12.0605 17.2915 12.1253 17.2667 12.1818C17.2502 12.2194 17.2137 12.2435 17.1739 12.2482L17.1733 12.2482Z" fill="#D1D3D4"/>
<path d="M30.7263 27.1147C30.6356 27.1255 30.5499 27.0675 30.5331 26.9809C30.5152 26.8913 30.5777 26.8043 30.6723 26.7873C31.004 26.7277 31.2392 26.4514 31.4667 26.1836C35.3817 21.5858 43.8011 19.2858 50.176 18.165C50.2748 18.1495 50.3625 18.2079 50.3798 18.2976C50.3977 18.3878 50.3345 18.4743 50.2398 18.4906C43.9234 19.6013 35.5869 21.8724 31.7453 26.3838C31.4839 26.6906 31.1946 27.0306 30.7367 27.1122C30.7334 27.1126 30.7294 27.1131 30.7254 27.1136L30.7263 27.1147Z" fill="white"/>
<path d="M30.6029 26.9624C30.6029 26.9624 30.6003 26.9628 30.5996 26.9628C30.5319 26.9696 30.4666 26.9385 30.4318 26.8834C28.8389 24.3776 25.8286 21.239 22.695 19.8769C19.9045 18.6641 16.588 17.99 12.8377 17.8749C12.7411 17.8717 12.6652 17.7954 12.6686 17.7039C12.6719 17.6124 12.7532 17.5403 12.8491 17.5436C16.646 17.6601 20.0082 18.3441 22.8408 19.5756C25.9195 20.9142 28.8755 23.921 30.539 26.4171C32.4023 21.5833 36.6545 15.7097 43.1797 13.3481C43.2701 13.3151 43.3713 13.3585 43.4054 13.4437C43.4395 13.5288 43.3943 13.6246 43.3046 13.6575C36.744 16.0316 32.5157 22.0298 30.7463 26.8518C30.7246 26.9117 30.669 26.954 30.6028 26.9618L30.6029 26.9624Z" fill="white"/>
<path d="M30.5325 26.7714C30.4583 26.7802 30.3842 26.7431 30.3518 26.6756C28.2971 22.3925 25.6091 19.4043 22.4971 15.944C21.6319 14.9821 20.7375 13.988 19.8274 12.9307C19.7662 12.8596 19.7774 12.7557 19.8524 12.6978C19.9275 12.6398 20.0371 12.6504 20.0983 12.7215C21.006 13.7759 21.8989 14.7689 22.7633 15.7297C25.8926 19.2089 28.5949 22.2139 30.6699 26.5392C30.7098 26.6224 30.671 26.7206 30.5832 26.7584C30.5667 26.7655 30.5498 26.77 30.5326 26.772L30.5325 26.7714Z" fill="white"/>
<path d="M12.7894 17.8693C12.7126 17.8784 12.6367 17.8383 12.6058 17.7675C10.9493 13.9284 9.18862 10.7621 7.22231 8.08593C7.183 8.03262 7.18043 7.96221 7.21544 7.90647C7.25044 7.85073 7.31689 7.81929 7.38508 7.8265C7.88219 7.87908 8.32485 7.89098 8.75327 7.90202C9.37204 7.91854 9.9064 7.93231 10.4291 8.06659C14.5961 9.13806 15.7769 9.96896 17.2712 11.0201C17.9457 11.4944 18.7062 12.0298 19.8539 12.6455C21.9181 8.94656 26.8166 4.39337 31.5806 3.05955C31.6357 3.0441 31.6957 3.05546 31.7399 3.08972C33.4915 4.42948 35.0237 6.02774 36.5058 7.57269C38.7178 9.87901 40.8068 12.0579 43.4697 13.303C43.5565 13.3437 43.5917 13.4427 43.5488 13.5249C43.5058 13.6071 43.4013 13.6405 43.3146 13.6004C40.5922 12.3272 38.4815 10.1261 36.2468 7.79573C34.7942 6.28105 33.2926 4.71549 31.5916 3.40285C26.8793 4.76176 22.048 9.30954 20.081 12.9498C20.0594 12.99 20.0217 13.0199 19.9763 13.0329C19.931 13.0459 19.8819 13.0409 19.8407 13.0191C18.5841 12.3577 17.7761 11.789 17.0623 11.2869C15.5977 10.2565 14.4406 9.44249 10.3369 8.38709C9.85386 8.26277 9.33905 8.24923 8.74263 8.23389C8.43155 8.22551 8.08877 8.21642 7.7215 8.18986C9.61688 10.8229 11.322 13.9193 12.9288 17.6419C12.9656 17.7268 12.9225 17.8236 12.8329 17.8578C12.8182 17.8633 12.8032 17.867 12.7886 17.8688L12.7894 17.8693Z" fill="white"/>
<path d="M27.6526 29.1517C27.6328 29.1541 27.6125 29.1533 27.5925 29.1493C25.5774 28.7223 23.449 28.6948 21.3908 28.6686C16.2456 28.6022 12.2105 29.4471 9.05424 31.2504C9.04423 31.2561 9.03347 31.2612 9.02188 31.2651C8.96586 31.2838 8.89311 31.2727 8.84627 31.2387C8.73976 31.1603 8.74836 31.0624 8.79824 30.5183C8.88402 29.5787 9.06376 27.6242 8.4657 26.0885C8.43218 26.0027 8.47878 25.9073 8.5694 25.8756C8.66068 25.8437 8.76064 25.888 8.79416 25.9738C9.41953 27.5788 9.23565 29.5836 9.14698 30.547C9.13763 30.6443 9.1292 30.7434 9.12225 30.8283C12.2982 29.0877 16.3171 28.2727 21.3955 28.338C23.433 28.3642 25.5378 28.3914 27.5535 28.8029C28.3667 27.7046 29.4145 27.0493 30.6703 26.854C32.1283 26.6265 33.4092 27.1105 33.731 27.3227C33.7693 27.3016 33.8347 27.2423 33.8726 27.2085C33.9195 27.166 33.9687 27.1213 34.0193 27.0873C35.208 26.2865 38.5045 24.9807 41.8585 23.9827C45.7488 22.825 49.0015 22.2728 50.8494 22.452C50.7955 21.9112 50.4864 21.0318 50.2474 20.6779C50.0668 20.4101 49.8613 20.1064 49.8234 19.7529C49.7874 19.4189 49.9028 19.111 50.0372 18.7536C50.1073 18.567 50.1788 18.3751 50.2384 18.1591C49.7723 17.7658 49.3519 17.5557 48.9084 17.3337C48.4419 17.1004 47.9588 16.8589 47.428 16.3931C47.3572 16.3308 47.3529 16.2262 47.4186 16.1591C47.4844 16.0921 47.5948 16.088 47.6656 16.1503C48.1622 16.5864 48.6042 16.8073 49.0715 17.0411C49.538 17.2744 50.021 17.516 50.5519 17.9818C50.5982 18.0222 50.6176 18.0829 50.6031 18.1407C50.5363 18.4142 50.4462 18.6536 50.3665 18.865C50.2417 19.1976 50.1432 19.4602 50.1713 19.7194C50.201 19.9948 50.3823 20.2632 50.5419 20.4997C50.8478 20.9527 51.2245 22.0744 51.2064 22.6454C51.2046 22.6927 51.1822 22.7368 51.1438 22.7674C51.1055 22.7981 51.0561 22.811 51.0069 22.8047C46.9019 22.2495 36.3929 25.8952 34.2225 27.3581C34.1929 27.3782 34.1533 27.4141 34.1148 27.4486C33.9929 27.5592 33.7658 27.7645 33.5414 27.6025C33.3259 27.4471 32.1252 26.9651 30.7271 27.1823C29.5352 27.3675 28.5417 28.0068 27.7759 29.0823C27.747 29.1227 27.702 29.1484 27.653 29.1542L27.6526 29.1517Z" fill="white"/>
<path d="M30.7296 27.0986C30.6786 27.1046 30.6275 27.089 30.5895 27.056C25.324 22.4716 15.9693 20.456 9.96844 21.156C9.89363 21.1649 9.82138 21.1269 9.78935 21.0626C8.25079 18.0051 6.04687 14.4811 3.89469 11.6346C3.86613 11.5966 3.85586 11.5494 3.86595 11.5036C3.87613 11.4584 3.90585 11.4186 3.94847 11.3951C5.80388 10.358 7.88535 10.3357 8.66888 10.3269C8.79649 10.3258 8.8972 10.3247 8.94429 10.3198C9.04045 10.3097 9.12644 10.3753 9.13712 10.4664C9.1478 10.5575 9.08233 10.6372 8.98236 10.6491C8.91864 10.6553 8.82067 10.6568 8.67295 10.6583C7.93841 10.6663 6.02477 10.6867 4.29166 11.5907C6.3941 14.3916 8.5339 17.8167 10.0508 20.8118C13.2618 20.4576 17.0904 20.8245 20.8504 21.8486C24.7708 22.9156 28.2438 24.6234 30.6601 26.6686C33.3253 22.0729 38.1595 19.3294 41.7696 17.8322C44.9042 16.5322 47.6788 15.9232 48.7128 15.7237C46.07 14.0455 42.7012 11.0239 39.4378 8.09749C37.8659 6.68739 36.2406 5.2301 34.724 3.9485C34.1384 3.92359 33.5283 4.1048 33.0813 4.43738C33.0054 4.49352 32.8956 4.48168 32.8356 4.40979C32.7757 4.3379 32.7889 4.23379 32.8648 4.17703C33.4011 3.7778 34.1086 3.5755 34.8066 3.6215C34.8452 3.62393 34.8822 3.63866 34.911 3.66328C36.4441 4.95821 38.0884 6.43236 39.6778 7.85758C43.0808 10.9095 46.5997 14.0649 49.2645 15.6704C49.3258 15.7071 49.3565 15.7761 49.3418 15.8434C49.3272 15.9108 49.2702 15.9628 49.199 15.9737C49.1654 15.979 45.8189 16.5136 41.901 18.1403C38.2955 19.6369 33.454 22.3908 30.8614 27.0123C30.8358 27.0574 30.7895 27.089 30.7362 27.0978C30.7336 27.0981 30.7309 27.0984 30.7283 27.0988L30.7296 27.0986Z" fill="white"/>
<path d="M8.59717 32.5407C8.52369 32.5494 8.44855 32.5507 8.37201 32.5413C7.95252 32.491 7.73112 32.0312 7.56973 31.5878C7.21649 30.7914 6.88833 30.027 6.57027 29.2882C6.25386 28.5517 5.92679 27.7904 5.5714 26.9879C4.21217 23.9187 2.64896 21.2247 1.98199 20.0736C1.7678 19.7041 1.66134 19.4986 1.6626 19.4573C1.67128 19.1817 2.07662 19.0025 2.58862 18.7756C2.77663 18.6922 2.97168 18.606 3.12014 18.5234C3.20347 18.4772 3.31047 18.5034 3.35988 18.5823C3.40863 18.6612 3.381 18.7626 3.29767 18.8088C3.13481 18.8994 2.93214 18.989 2.73717 19.0758C2.49958 19.1811 2.1127 19.3524 2.0254 19.4551C2.07059 19.5376 2.17338 19.7153 2.28908 19.9143C2.95928 21.0694 4.52795 23.7743 5.89471 26.8598C6.25101 27.6641 6.57884 28.426 6.89541 29.1637C7.21273 29.902 7.5408 30.6657 7.89784 31.4706C8.07595 31.9591 8.23982 32.1919 8.41741 32.213C8.65103 32.2407 8.89234 32.1127 9.1262 31.9895C13.7206 29.5591 19.3398 28.6622 24.9497 29.4634C25.3821 29.5249 25.7842 29.6015 26.1738 29.6751C26.6959 29.7738 27.1883 29.8677 27.7443 29.928C27.9695 29.9529 28.4057 29.4833 28.7574 29.1066C29.0408 28.803 29.3336 28.4893 29.6067 28.3072C30.2552 27.8763 30.9957 27.6943 31.6394 27.8085C31.9162 27.8572 32.1763 27.9583 32.4271 28.0553C32.7602 28.1847 33.0748 28.3066 33.4053 28.3038C33.8426 28.3004 34.2577 28.0735 34.6591 27.854L34.7087 27.8271C38.0503 26.0076 41.8167 25.0365 45.458 24.0969C46.5511 23.8151 47.6806 23.5234 48.8413 23.4534C49.4097 23.4192 49.9831 23.4385 50.5389 23.4568C50.8813 23.4684 51.2358 23.4799 51.582 23.4791C51.8817 23.478 51.9992 23.4303 52.0361 23.4094C52.1068 23.3698 52.1854 23.1706 52.166 23.1099C52.0687 22.8316 51.8672 22.2522 51.0483 21.9167C50.9595 21.8807 50.9191 21.7829 50.957 21.6988C50.9957 21.6146 51.0989 21.5763 51.187 21.6123C52.1502 22.0072 52.3939 22.707 52.4979 23.0062C52.5715 23.2173 52.4227 23.5776 52.2143 23.6946C52.0771 23.7714 51.8711 23.8098 51.5827 23.8102C51.2291 23.8113 50.8719 23.7995 50.5261 23.7876C49.979 23.769 49.4143 23.7499 48.8633 23.7833C47.7387 23.8515 46.6254 24.1382 45.5499 24.4159C41.9293 25.35 38.1857 26.3151 34.883 28.1135L34.8334 28.1404C34.3924 28.3805 33.935 28.629 33.4085 28.634C33.0076 28.6376 32.6454 28.497 32.2946 28.3608C32.0488 28.2658 31.817 28.1754 31.5753 28.1327C31.0232 28.035 30.3789 28.1973 29.8071 28.5772C29.5678 28.7361 29.2886 29.0354 29.0189 29.3247C28.5306 29.8482 28.108 30.2996 27.7042 30.2557C27.1338 30.1933 26.6111 30.0947 26.1049 29.9986C25.7201 29.9257 25.3215 29.85 24.8973 29.7894C19.3634 28.999 13.8231 29.882 9.29662 32.277C9.09677 32.3828 8.85918 32.5084 8.599 32.5392L8.59717 32.5407Z" fill="white"/>
<path d="M8.91234 31.2805C8.83951 31.2891 8.76619 31.2532 8.73259 31.1871C7.92731 29.5843 7.31709 28.1908 6.72715 26.8441C5.67605 24.4435 4.7683 22.37 3.07616 19.8046C3.05349 19.7704 3.04471 19.7294 3.05215 19.689C3.2302 18.6997 3.02551 17.8417 2.74244 16.6547C2.63202 16.1901 2.50604 15.6636 2.38759 15.0616C2.37153 14.9807 2.42027 14.9017 2.50212 14.8748C2.5833 14.848 2.67383 14.8818 2.71439 14.9548C3.26591 15.9545 3.96607 17.1328 4.70695 18.3801C6.24905 20.9754 7.99102 23.9081 8.7369 25.8505C17.2816 23.6491 25.301 23.9482 30.2125 26.6559C30.2959 26.702 30.3241 26.8032 30.2753 26.8822C30.2266 26.9612 30.1198 26.9879 30.0364 26.9417C25.1742 24.2614 17.1877 23.9876 8.6727 26.2097C8.58432 26.233 8.49147 26.1866 8.46109 26.1042C7.75966 24.1929 5.97556 21.1906 4.40218 18.5417C3.89485 17.6884 3.40722 16.8671 2.97206 16.1122C3.01038 16.2752 3.04721 16.432 3.08305 16.5813C3.36927 17.7819 3.57736 18.6554 3.40693 19.682C5.09302 22.2475 6.04398 24.4191 7.04989 26.7167C7.63809 28.0605 8.24641 29.4497 9.04796 31.0447C9.08976 31.127 9.05243 31.2263 8.96546 31.2653C8.94833 31.273 8.93013 31.2777 8.91226 31.2799L8.91234 31.2805Z" fill="white"/>
<path d="M2.67078 15.1353C2.5953 15.1442 2.52023 15.1053 2.48827 15.0364C2.45027 14.9522 2.49122 14.8549 2.57985 14.8183C3.69005 14.3654 4.74576 14.1313 5.90064 14.0831C5.99697 14.0794 6.07891 14.15 6.0829 14.2413C6.08689 14.3327 6.01183 14.4111 5.91608 14.4141C4.78926 14.4609 3.80282 14.6798 2.71819 15.1226C2.70288 15.1289 2.68658 15.1328 2.67069 15.1346L2.67078 15.1353Z" fill="white"/>
</g>
</svg>
