<svg width="20" height="21" viewBox="0 0 20 21" fill="none" xmlns="http://www.w3.org/2000/svg">
<path fill-rule="evenodd" clip-rule="evenodd" d="M16.4608 4.3825C16.5329 4.3001 16.588 4.2043 16.6231 4.10059C16.6581 3.99689 16.6724 3.88729 16.6651 3.77807C16.6578 3.66884 16.629 3.56213 16.5804 3.46401C16.5319 3.3659 16.4645 3.27831 16.3821 3.20625C16.2997 3.13419 16.2039 3.07906 16.1002 3.04402C15.9965 3.00898 15.8869 2.9947 15.7776 3.00202C15.6684 3.00933 15.5617 3.03808 15.4636 3.08664C15.3655 3.13519 15.2779 3.2026 15.2058 3.285L10.9475 8.15167L7.33333 3.33333C7.25571 3.22984 7.15506 3.14583 7.03934 3.08798C6.92363 3.03012 6.79604 3 6.66667 3H3.33333C3.17857 3 3.02687 3.0431 2.89522 3.12446C2.76358 3.20582 2.65719 3.32223 2.58798 3.46066C2.51877 3.59908 2.48947 3.75404 2.50337 3.90817C2.51727 4.06231 2.57381 4.20953 2.66667 4.33333L8.03083 11.485L3.53917 16.6183C3.4671 16.7007 3.41198 16.7965 3.37693 16.9002C3.34189 17.0039 3.32762 17.1135 3.33493 17.2228C3.34225 17.332 3.371 17.4387 3.41955 17.5368C3.46811 17.6349 3.53551 17.7225 3.61792 17.7946C3.70032 17.8666 3.79611 17.9218 3.89982 17.9568C4.00353 17.9919 4.11313 18.0061 4.22235 17.9988C4.33158 17.9915 4.43829 17.9628 4.5364 17.9142C4.63452 17.8656 4.7221 17.7982 4.79417 17.7158L9.0525 12.8483L12.6667 17.6667C12.7443 17.7702 12.8449 17.8542 12.9607 17.912C13.0764 17.9699 13.204 18 13.3333 18H16.6667C16.8214 18 16.9731 17.9569 17.1048 17.8755C17.2364 17.7942 17.3428 17.6778 17.412 17.5393C17.4812 17.4009 17.5105 17.246 17.4966 17.0918C17.4827 16.9377 17.4262 16.7905 17.3333 16.6667L11.9692 9.515L16.4608 4.3825ZM13.75 16.3333L5 4.66667H6.25L15 16.3333H13.75Z" fill="white"/>
</svg>
